<svg xmlns="http://www.w3.org/2000/svg" viewBox="0 0 24 24" fill="none">
  <defs>
    <linearGradient id="ig-gradient" x1="3" y1="21" x2="21" y2="3" gradientUnits="userSpaceOnUse">
      <stop stop-color="#F58529"/>
      <stop offset="0.35" stop-color="#FEDA77"/>
      <stop offset="0.62" stop-color="#DD2A7B"/>
      <stop offset="1" stop-color="#515BD4"/>
    </linearGradient>
  </defs>
  <rect x="1.5" y="1.5" width="21" height="21" rx="6" fill="url(#ig-gradient)"/>
  <path d="M8.06 5.7H15.94C17.44 5.7 18.66 6.92 18.66 8.42V15.58C18.66 17.08 17.44 18.3 15.94 18.3H8.06C6.56 18.3 5.34 17.08 5.34 15.58V8.42C5.34 6.92 6.56 5.7 8.06 5.7ZM8.01 7.2C7.34 7.2 6.79 7.74 6.79 8.42V15.58C6.79 16.25 7.34 16.8 8.01 16.8H15.99C16.66 16.8 17.21 16.25 17.21 15.58V8.42C17.21 7.75 16.66 7.2 15.99 7.2H8.01ZM16.19 8.31C16.62 8.31 16.97 8.66 16.97 9.09C16.97 9.52 16.62 9.87 16.19 9.87C15.76 9.87 15.41 9.52 15.41 9.09C15.41 8.66 15.76 8.31 16.19 8.31ZM12 8.82C13.76 8.82 15.18 10.24 15.18 12C15.18 13.76 13.76 15.18 12 15.18C10.24 15.18 8.82 13.76 8.82 12C8.82 10.24 10.24 8.82 12 8.82ZM12 10.32C11.07 10.32 10.32 11.07 10.32 12C10.32 12.93 11.07 13.68 12 13.68C12.93 13.68 13.68 12.93 13.68 12C13.68 11.07 12.93 10.32 12 10.32Z" fill="#ffffff"/>
</svg>
