<svg xmlns="http://www.w3.org/2000/svg" viewBox="0 0 24 24" fill="none">
  <rect x="1.5" y="1.5" width="21" height="21" rx="6" fill="#111111"/>
  <path d="M13.82 5.01C13.99 6.29 14.75 7.45 15.9 8.15C16.63 8.61 17.47 8.87 18.35 8.89V11.44C16.75 11.4 15.2 10.93 13.82 10.07V14.77C13.82 17.45 11.64 19.63 8.95 19.63C6.26 19.63 4.08 17.45 4.08 14.77C4.08 12.08 6.26 9.9 8.95 9.9C9.18 9.9 9.41 9.92 9.63 9.96V12.47C9.41 12.4 9.18 12.36 8.95 12.36C7.62 12.36 6.54 13.44 6.54 14.77C6.54 16.1 7.62 17.18 8.95 17.18C10.28 17.18 11.36 16.1 11.36 14.77V5.01H13.82Z" fill="#25F4EE"/>
  <path d="M14.63 4.37C14.8 5.65 15.56 6.81 16.71 7.51C17.44 7.97 18.28 8.23 19.16 8.25V10.8C17.56 10.76 16.01 10.29 14.63 9.43V14.13C14.63 16.81 12.45 18.99 9.76 18.99C8.75 18.99 7.81 18.68 7.03 18.15C7.54 18.37 8.1 18.49 8.68 18.49C11.37 18.49 13.55 16.31 13.55 13.63V8.93C14.93 9.79 16.48 10.26 18.08 10.3V7.75C17.2 7.73 16.36 7.47 15.63 7.01C14.48 6.31 13.72 5.15 13.55 3.87H11.09V13.63C11.09 14.96 10.01 16.04 8.68 16.04C7.89 16.04 7.19 15.66 6.75 15.07C7.14 16.57 8.51 17.68 9.76 17.68C11.09 17.68 12.17 16.6 12.17 15.27V4.37H14.63Z" fill="#FE2C55"/>
  <path d="M14.22 4.69C14.39 5.98 15.15 7.14 16.3 7.84C17.03 8.3 17.87 8.56 18.75 8.58V11.12C17.15 11.08 15.6 10.62 14.22 9.75V14.46C14.22 17.14 12.04 19.32 9.35 19.32C6.66 19.32 4.48 17.14 4.48 14.46C4.48 11.77 6.66 9.59 9.35 9.59C9.58 9.59 9.81 9.61 10.03 9.65V12.16C9.81 12.09 9.58 12.05 9.35 12.05C8.02 12.05 6.94 13.13 6.94 14.46C6.94 15.79 8.02 16.87 9.35 16.87C10.68 16.87 11.76 15.79 11.76 14.46V4.69H14.22Z" fill="#ffffff"/>
</svg>
