<svg xmlns="http://www.w3.org/2000/svg" viewBox="0 0 24 24"><path d="M12 3C7.04 3 3 6.96 3 11.84C3 13.4 3.41 14.91 4.19 16.24L3 21L7.9 19.72C9.16 20.39 10.57 20.75 12 20.75C16.96 20.75 21 16.79 21 11.91C21 7.03 16.96 3 12 3ZM12 19.06C10.72 19.06 9.48 18.71 8.4 18.06L8.12 17.89L5.21 18.65L5.98 15.82L5.79 15.53C5.09 14.45 4.72 13.21 4.72 11.91C4.72 7.97 7.96 4.77 12 4.77C16.04 4.77 19.28 7.97 19.28 11.91C19.28 15.85 16.04 19.06 12 19.06ZM16.16 13.67C15.94 13.56 14.86 13.03 14.65 12.95C14.44 12.87 14.29 12.84 14.14 13.06C13.99 13.28 13.56 13.81 13.43 13.96C13.3 14.11 13.17 14.13 12.95 14.02C11.64 13.37 10.78 12.86 9.91 11.37C9.68 10.98 10.14 11.01 10.56 10.16C10.63 10.01 10.6 9.88 10.55 9.77C10.5 9.66 10.06 8.58 9.88 8.14C9.7 7.71 9.53 7.77 9.39 7.77H8.97C8.82 7.77 8.58 7.82 8.38 8.04C8.18 8.26 7.61 8.79 7.61 9.87C7.61 10.95 8.4 11.99 8.51 12.14C8.62 12.29 10.03 14.46 12.19 15.39C13.56 15.98 14.09 16.03 14.76 15.93C15.17 15.87 16.01 15.41 16.19 14.88C16.37 14.35 16.37 13.89 16.31 13.78C16.26 13.69 16.38 13.78 16.16 13.67Z" fill="white"/></svg>